<?xml version="1.0" encoding="UTF-8"?>
<!DOCTYPE svg PUBLIC "-//W3C//DTD SVG 1.1//EN" "http://www.w3.org/Graphics/SVG/1.1/DTD/svg11.dtd">
<!-- Creator: CorelDRAW 2020 (64 Bit) -->
<svg xmlns="http://www.w3.org/2000/svg" xml:space="preserve" width="131.596mm" height="131.596mm" version="1.1" style="shape-rendering:geometricPrecision; text-rendering:geometricPrecision; image-rendering:optimizeQuality; fill-rule:evenodd; clip-rule:evenodd"
viewBox="0 0 3009.23 3009.23"
 xmlns:xlink="http://www.w3.org/1999/xlink"
 xmlns:xodm="http://www.corel.com/coreldraw/odm/2003">
 <defs>
  <style type="text/css">
   <![CDATA[
    .fil0 {fill:#1F1F1F}
   ]]>
  </style>
 </defs>
 <g id="Camada_x0020_1">
  <metadata id="CorelCorpID_0Corel-Layer"/>
  <path class="fil0" d="M-0 181.95l0 2645.32c0,55.29 22.69,95.02 50.47,124.48 25.02,26.54 75.62,57.47 124.48,57.47l2652.32 0c99.08,0 181.95,-82.87 181.95,-181.95l0 -2645.32c0,-99.08 -82.87,-181.95 -181.95,-181.95l-2652.32 0c-84.4,0 -174.95,78.95 -174.95,181.95zm2191.15 1741.66c-81.44,18.85 -184.17,4.59 -238.23,-38.45 -89.82,-71.5 -105.22,-237.18 -58.05,-326.74 32.94,-62.53 95.47,-105.36 165.38,-122.11 49.64,-11.89 82.59,-6.31 130.9,0.42l0 486.88zm-0.07 -696.76c-97.25,-6.16 -175.35,-4.19 -271.75,31.08 -172.94,63.28 -301.57,227.26 -301.81,428.8 -0.23,194.76 76.8,353.59 262.01,422.19 173.32,64.2 385.64,34.17 548.44,-30.7 4.12,-1.64 7.28,-3.71 9.69,-6.24l0 -136.07c-1.78,-80.23 0,-182.27 0,-249.18l0 -347.41 0 -269.32c0,-35.03 5.32,-184.48 -3.56,-203.02 -15.47,-3.64 -186.77,-2.02 -225.4,-1.57 -23.37,0.27 -17.54,7.17 -17.54,58.69 0,100.74 1.09,202.09 -0.07,302.75zm-1281.73 316.19c-2.92,10.87 -34.66,59.33 -42.74,72.49l-131.44 215.62c-44.56,72.01 -110.76,177.54 -153.24,251.29 -6.22,10.79 -20.64,26.45 -16.42,40.69l260.15 -0.58c16.82,-2.95 19.71,-21.48 36.81,-51.41 14.39,-25.17 26.76,-50.07 41.53,-75.58 14.28,-24.67 27.31,-50.64 40.88,-76.22 13.25,-24.98 28.08,-51.72 40.53,-76.72 12.73,-25.57 27.12,-52.18 40.61,-76.58 14.32,-25.9 25.24,-50.95 40,-77.12 7.8,4.05 77.04,134.85 87.67,153.28 40.93,70.93 85.48,160.74 124.29,236.09 23.59,45.8 17.61,42.92 77.62,42.89 40.97,-0.02 214.27,2.1 239.35,-0.58 5.64,-14.26 -28.55,-60.61 -37.07,-74.65 -14.21,-23.43 -28.73,-47.64 -43.43,-71.55l-262.07 -429.81c-15.16,-24.53 -15.97,-12.51 20.03,-71.46l261.09 -430.81c8.07,-13.2 42.69,-64.14 40.65,-76.18 -13.75,-7.78 -194.88,-3.2 -227.39,-3.3 -34.98,-0.11 -25.59,-11.63 -60.02,56.04 -13.2,25.94 -26.67,49.86 -39.91,75.02 -13.58,25.82 -26.78,49.6 -40.45,74.51l-79.67 150.09c-11.49,21.9 -30.29,56.34 -38.05,78.64 -8.79,-5.37 -16.1,-27.24 -21.07,-36.93l-61.42 -113.18c-19.47,-32.81 -68.56,-118.06 -84.13,-150.21 -19.81,-40.9 -37.31,-71.78 -56.84,-115.63 -8.24,-18.49 -17.02,-19.57 -40.09,-19.57 -78.11,0.02 -156.42,-0.54 -234.49,-0.08 -29.3,0.17 -14.82,16.27 -7.08,29.46 7.36,12.54 13.48,23.54 21.33,36.15 14.96,24.03 29.14,49.25 43.46,73.72l217.55 368.23c14.08,24.14 29.99,49.07 43.5,73.96z"/>
 </g>
</svg>
