<?xml version="1.0" encoding="UTF-8"?>
<!DOCTYPE svg PUBLIC "-//W3C//DTD SVG 1.1//EN" "http://www.w3.org/Graphics/SVG/1.1/DTD/svg11.dtd">
<!-- Creator: CorelDRAW 2020 (64 Bit) -->
<svg xmlns="http://www.w3.org/2000/svg" xml:space="preserve" width="131.596mm" height="131.596mm" version="1.1" style="shape-rendering:geometricPrecision; text-rendering:geometricPrecision; image-rendering:optimizeQuality; fill-rule:evenodd; clip-rule:evenodd"
viewBox="0 0 1444.84 1444.84"
 xmlns:xlink="http://www.w3.org/1999/xlink"
 xmlns:xodm="http://www.corel.com/coreldraw/odm/2003">
 <defs>
  <style type="text/css">
   <![CDATA[
    .fil0 {fill:#1F1F1F}
   ]]>
  </style>
 </defs>
 <g id="Camada_x0020_1">
  <metadata id="CorelCorpID_0Corel-Layer"/>
  <path class="fil0" d="M-0 87.36l0 1270.12c0,26.55 10.9,45.62 24.23,59.77 12.01,12.74 36.31,27.59 59.77,27.59l1273.48 0c47.57,0 87.36,-39.79 87.36,-87.36l0 -1270.12c0,-47.57 -39.79,-87.36 -87.36,-87.36l-1273.48 0c-40.52,0 -84,37.91 -84,87.36zm504.55 590.46c23.16,26.9 55.94,57.84 81.42,83.39 96.02,96.3 192.09,193.05 288.92,288.49 33.21,32.71 53.58,36.13 98.84,42.49 33.7,4.74 38.57,0.67 62.79,-24.05 14.24,-14.53 23.97,-25.1 39.36,-38.92 29.1,-26.14 24.45,-45.16 18.93,-80.9 -8.23,-53.08 -23.87,-63.42 -61.13,-101.1 -112.16,-113.41 -224.97,-227.76 -339.45,-338.76 -12.79,-12.39 -7.84,-12.64 -20.21,0 -55.74,57 -112.83,113.22 -169.46,169.37zm538.26 426.14c-2.36,12.96 10.38,12.83 21.94,14.97 36.66,6.81 57.22,4.97 51.29,-40.38 -7.14,-54.52 -28.31,-25.07 -50.42,-2.55 -7.65,7.79 -18.67,17.84 -22.8,27.96zm-448.94 -694.25c-21.45,-21.83 -73.13,-84.76 -103.09,-86.66 -40.05,-2.54 -88.18,60.12 -116.4,87.1 -80.07,76.6 -46.28,94.92 21.12,160.25 12.91,12.52 76.19,78.85 82.43,81.69 3.01,1.37 2.87,2.44 4.99,5.27 3.73,-4.08 7.72,-8.4 12.01,-13 53.39,-57.02 109.4,-112.89 164.74,-168.07 -2.84,-1.86 -56.87,-57.49 -65.81,-66.58z"/>
 </g>
</svg>
