<?xml version="1.0" encoding="UTF-8"?>
<!DOCTYPE svg PUBLIC "-//W3C//DTD SVG 1.1//EN" "http://www.w3.org/Graphics/SVG/1.1/DTD/svg11.dtd">
<!-- Creator: CorelDRAW 2020 (64 Bit) -->
<svg xmlns="http://www.w3.org/2000/svg" xml:space="preserve" width="131.596mm" height="131.596mm" version="1.1" style="shape-rendering:geometricPrecision; text-rendering:geometricPrecision; image-rendering:optimizeQuality; fill-rule:evenodd; clip-rule:evenodd"
viewBox="0 0 1425.17 1425.17"
 xmlns:xlink="http://www.w3.org/1999/xlink"
 xmlns:xodm="http://www.corel.com/coreldraw/odm/2003">
 <defs>
  <style type="text/css">
   <![CDATA[
    .fil0 {fill:#1F1F1F}
   ]]>
  </style>
 </defs>
 <g id="Camada_x0020_1">
  <metadata id="CorelCorpID_0Corel-Layer"/>
  <path class="fil0" d="M-0 86.17l0 1252.82c0,26.18 10.75,45 23.9,58.96 11.85,12.57 35.81,27.22 58.95,27.22l1256.14 0c46.92,0 86.17,-39.25 86.17,-86.17l0 -1252.82c0,-46.92 -39.25,-86.17 -86.17,-86.17l-1256.14 0c-39.97,0 -82.86,37.39 -82.86,86.17zm403.52 389.71l308.63 1.19 182 0.58 -13.29 129.32 -466.54 1.86 10.64 126.09 443.85 2.3 -15.08 163.46c-25.49,5.56 -50.02,13.34 -74.43,19.71 -20.46,5.34 -64.92,21.6 -74.79,14.92 -14.63,-0.27 -125.53,-29.73 -137.89,-36.82l-9.96 -101.87 -131.73 -0.67 18.26 205.1 268.96 73.64 263.62 -71.42 55.82 -652.8 -319.43 0.51 -318.56 -0.25 9.94 125.14z"/>
 </g>
</svg>
