<?xml version="1.0" encoding="UTF-8"?>
<!DOCTYPE svg PUBLIC "-//W3C//DTD SVG 1.1//EN" "http://www.w3.org/Graphics/SVG/1.1/DTD/svg11.dtd">
<!-- Creator: CorelDRAW 2020 (64 Bit) -->
<svg xmlns="http://www.w3.org/2000/svg" xml:space="preserve" width="131.596mm" height="131.596mm" version="1.1" style="shape-rendering:geometricPrecision; text-rendering:geometricPrecision; image-rendering:optimizeQuality; fill-rule:evenodd; clip-rule:evenodd"
viewBox="0 0 6520.15 6520.15"
 xmlns:xlink="http://www.w3.org/1999/xlink"
 xmlns:xodm="http://www.corel.com/coreldraw/odm/2003">
 <defs>
  <style type="text/css">
   <![CDATA[
    .fil0 {fill:#1F1F1F}
   ]]>
  </style>
 </defs>
 <g id="Camada_x0020_1">
  <metadata id="CorelCorpID_0Corel-Layer"/>
  <path class="fil0" d="M-0 394.24l0 5731.66c0,119.79 49.17,205.88 109.36,269.72 54.21,57.5 163.85,124.52 269.72,124.52l5746.83 0c214.68,0 394.24,-179.56 394.24,-394.24l0 -5731.66c0,-214.68 -179.56,-394.24 -394.24,-394.24l-5746.83 0c-182.88,0 -379.08,171.07 -379.08,394.24zm1535.27 1887.44c0,195.62 102.38,310.39 241.22,414.52 241.71,181.29 587.68,278.25 891.86,329.81 546.37,92.62 1150.13,48.97 1670.77,-123.31 253.62,-83.92 645.56,-290.54 645.56,-603.05 0,-297.6 -378.34,-501.94 -609.69,-585.04 -638.17,-229.22 -1582.02,-249.16 -2216.12,-4.04 -220.29,85.16 -623.6,283.58 -623.6,571.11zm1598.94 2703.83c383.4,0 515.51,3.28 900.53,-78.59 287.29,-61.09 538.02,-156.71 755.14,-331.78 72.19,-58.2 118.95,-118.33 162.03,-206.26 54.79,-111.79 32.76,-541.99 32.76,-694.85l-8.98 0c0,248.35 -334.41,444.71 -540.12,528.84 -541.11,221.31 -1168.06,240.73 -1742.07,163.39 -169.51,-22.84 -346.21,-69.44 -492.47,-118.37 -137.22,-45.9 -300.54,-122.1 -407.93,-202.9 -98.71,-74.27 -248.86,-206.51 -248.86,-370.95l-8.98 0c0,165.81 -20.79,569.51 30.46,697.15 120.06,299.02 647.19,475.07 918.14,537.09 185.86,42.55 429.92,77.25 650.35,77.25zm1850.47 -2272.65l-8.98 0c0,281.79 -417.72,492.68 -650.03,571.63 -563.47,191.46 -1298.7,219.13 -1895.71,69.76 -83.29,-20.83 -162.27,-39.71 -236.36,-69.07 -81.02,-32.1 -139.84,-52.56 -215.18,-90.23 -171.77,-85.88 -434.17,-257.9 -434.17,-482.08l-8.98 0c0,125.76 0,251.52 0,377.28 0,311.63 4.44,353.67 213.25,541.3 64.83,58.25 155.68,105.72 238.88,147.38 91.43,45.78 166.57,72.67 269.86,107.41 203.29,68.39 601.15,139.47 813.95,138.24l188.75 9.45c33.31,0 79.15,-10.05 179.73,-9.51 389.67,2.11 1035.9,-151.25 1321.75,-384.98 227.51,-186.03 223.24,-284.31 223.24,-540.31 0,-128.76 0,-257.51 0,-386.26z"/>
 </g>
</svg>
