<?xml version="1.0" encoding="UTF-8"?>
<!DOCTYPE svg PUBLIC "-//W3C//DTD SVG 1.1//EN" "http://www.w3.org/Graphics/SVG/1.1/DTD/svg11.dtd">
<!-- Creator: CorelDRAW 2020 (64 Bit) -->
<svg xmlns="http://www.w3.org/2000/svg" xml:space="preserve" width="131.596mm" height="131.596mm" version="1.1" style="shape-rendering:geometricPrecision; text-rendering:geometricPrecision; image-rendering:optimizeQuality; fill-rule:evenodd; clip-rule:evenodd"
viewBox="0 0 1944.94 1944.94"
 xmlns:xlink="http://www.w3.org/1999/xlink"
 xmlns:xodm="http://www.corel.com/coreldraw/odm/2003">
 <defs>
  <style type="text/css">
   <![CDATA[
    .fil0 {fill:#1F1F1F}
   ]]>
  </style>
 </defs>
 <g id="Camada_x0020_1">
  <metadata id="CorelCorpID_0Corel-Layer"/>
  <path class="fil0" d="M-0 117.6l0 1709.74c0,35.73 14.67,61.41 32.62,80.46 16.17,17.15 48.88,37.14 80.46,37.14l1714.26 0c64.04,0 117.6,-53.56 117.6,-117.6l0 -1709.74c0,-64.04 -53.56,-117.6 -117.6,-117.6l-1714.26 0c-54.55,0 -113.08,51.03 -113.08,117.6zm779.09 633.49l365 0c121.04,0 230.13,-155.12 117.53,-288.62 -20,-23.72 -70.91,-53.56 -111.83,-53.56l-370.7 0c-48.63,0 -84.28,29.95 -109.91,55.48 -63.09,62.88 -64.13,163.96 -0.7,231.93 28.24,30.27 65.41,54.78 110.61,54.78zm-159.69 211.02c0,109.1 73.53,182.5 171.09,182.5l176.8 0 0 -330.78c0,-13.14 -3.97,-17.11 -17.11,-17.11 -112.45,0 -198.22,-14.82 -274.01,45.37 -28.13,22.34 -56.77,69.18 -56.77,120.02zm0 404.92c0,91.29 88.03,175.36 180.57,168.64 195.42,-14.2 167.32,-209.54 167.32,-345.43l-176.8 0c-95.26,0 -171.09,81.35 -171.09,176.8zm359.3 -393.52c0,76.28 46.28,131.36 98.69,157.95 132.38,67.17 297.91,-69.94 233.96,-222.56 -73.67,-175.82 -332.66,-118.11 -332.66,64.61z"/>
 </g>
</svg>
