<?xml version="1.0" encoding="UTF-8"?>
<!DOCTYPE svg PUBLIC "-//W3C//DTD SVG 1.1//EN" "http://www.w3.org/Graphics/SVG/1.1/DTD/svg11.dtd">
<!-- Creator: CorelDRAW 2020 (64 Bit) -->
<svg xmlns="http://www.w3.org/2000/svg" xml:space="preserve" width="131.596mm" height="131.596mm" version="1.1" style="shape-rendering:geometricPrecision; text-rendering:geometricPrecision; image-rendering:optimizeQuality; fill-rule:evenodd; clip-rule:evenodd"
viewBox="0 0 1126.82 1126.82"
 xmlns:xlink="http://www.w3.org/1999/xlink"
 xmlns:xodm="http://www.corel.com/coreldraw/odm/2003">
 <defs>
  <style type="text/css">
   <![CDATA[
    .fil0 {fill:#1F1F1F}
   ]]>
  </style>
 </defs>
 <g id="Camada_x0020_1">
  <metadata id="CorelCorpID_0Corel-Layer"/>
  <path class="fil0" d="M-0 68.13l0 990.55c0,20.7 8.5,35.58 18.9,46.61 9.37,9.94 28.32,21.52 46.61,21.52l993.17 0c37.1,0 68.13,-31.03 68.13,-68.13l0 -990.55c0,-37.1 -31.03,-68.13 -68.13,-68.13l-993.17 0c-31.6,0 -65.51,29.56 -65.51,68.13zm770.62 726.02l27.9 -312.63 -369.89 -0.58 -8.85 -102.94 388 0.43 8.89 -102.08 -506.36 0.55c-2.27,13.85 23.04,296.51 27.12,306.15l348.66 0.6c0.29,16.02 -8.45,122.28 -12.47,129.14 -6.15,4.93 -98.62,30.63 -110.44,31.49 -6.2,0.45 -101.32,-25.72 -111.89,-29.39 -5.71,-13.51 -8.03,-62.56 -8.93,-81.09l-101.51 0c0.88,22.2 10.21,147.99 15.2,158.66 6.72,4.01 198.03,57.84 207.35,57.99 9.9,0.16 173.71,-49.31 207.24,-56.3z"/>
 </g>
</svg>
