<?xml version="1.0" encoding="UTF-8"?>
<!DOCTYPE svg PUBLIC "-//W3C//DTD SVG 1.1//EN" "http://www.w3.org/Graphics/SVG/1.1/DTD/svg11.dtd">
<!-- Creator: CorelDRAW 2020 (64 Bit) -->
<svg xmlns="http://www.w3.org/2000/svg" xml:space="preserve" width="131.596mm" height="131.596mm" version="1.1" style="shape-rendering:geometricPrecision; text-rendering:geometricPrecision; image-rendering:optimizeQuality; fill-rule:evenodd; clip-rule:evenodd"
viewBox="0 0 1924.85 1924.85"
 xmlns:xlink="http://www.w3.org/1999/xlink"
 xmlns:xodm="http://www.corel.com/coreldraw/odm/2003">
 <defs>
  <style type="text/css">
   <![CDATA[
    .fil0 {fill:#1F1F1F}
   ]]>
  </style>
 </defs>
 <g id="Camada_x0020_1">
  <metadata id="CorelCorpID_0Corel-Layer"/>
  <path class="fil0" d="M792.32 1741.32c-106.18,0 -177.06,-47.12 -238.46,-110.7 -21.54,-22.3 -33.39,-45.17 -48.03,-72.83 48.52,-25.67 94.72,-59.38 143.25,-85.05 35.69,67.45 75.98,85.05 147.72,85.05 55.79,0 76.1,-51.4 76.1,-107.43l0 -577.46 179.06 0 0 622.22c0,74.68 -31.51,142.84 -70.34,180.34 -39.58,38.23 -112.99,65.86 -189.29,65.86zm760.99 -644.6c-62.56,-118.24 -196.96,-85.36 -196.96,4.48 0,55.39 54.82,80.96 94.06,98.43 129.21,57.51 290.91,106.12 290.91,295.5 0,251.65 -311.27,298.5 -480.46,193.97 -24.96,-15.42 -45.21,-35.41 -64.61,-56.26 -22.92,-24.63 -32.42,-48.34 -50.3,-75.04 47.72,-25.25 91.05,-64.28 138.77,-89.53 17.59,33.25 32.19,54.22 59.23,79.54 75.69,70.85 213.83,42.71 213.83,-39.25 0,-61.91 -25.47,-86.23 -92.06,-113.86 -135.56,-56.23 -279.48,-114.11 -279.48,-289.02 0,-34.54 7.8,-72.52 19.32,-97.07 80.83,-172.3 377.28,-194.91 482.04,3.07 -45.23,23.93 -89.06,61.12 -134.29,85.05zm-1553.31 -980.33l0 1692.08c0,35.37 14.52,60.78 32.28,79.63 16,16.98 48.37,36.76 79.62,36.76l1696.56 0c63.38,0 116.39,-53.01 116.39,-116.39l0 -1692.08c0,-63.38 -53.01,-116.39 -116.39,-116.39l-1696.56 0c-53.99,0 -111.91,50.5 -111.91,116.39z"/>
 </g>
</svg>
