<?xml version="1.0" encoding="UTF-8"?>
<!DOCTYPE svg PUBLIC "-//W3C//DTD SVG 1.1//EN" "http://www.w3.org/Graphics/SVG/1.1/DTD/svg11.dtd">
<!-- Creator: CorelDRAW 2020 (64 Bit) -->
<svg xmlns="http://www.w3.org/2000/svg" xml:space="preserve" width="131.596mm" height="131.596mm" version="1.1" style="shape-rendering:geometricPrecision; text-rendering:geometricPrecision; image-rendering:optimizeQuality; fill-rule:evenodd; clip-rule:evenodd"
viewBox="0 0 6520.15 6520.15"
 xmlns:xlink="http://www.w3.org/1999/xlink"
 xmlns:xodm="http://www.corel.com/coreldraw/odm/2003">
 <defs>
  <style type="text/css">
   <![CDATA[
    .fil0 {fill:#1F1F1F}
   ]]>
  </style>
 </defs>
 <g id="Camada_x0020_1">
  <metadata id="CorelCorpID_0Corel-Layer"/>
  <path class="fil0" d="M-0 394.24l0 5731.66c0,119.79 49.17,205.88 109.36,269.72 54.21,57.5 163.85,124.52 269.72,124.52l5746.83 0c214.68,0 394.24,-179.56 394.24,-394.24l0 -5731.66c0,-214.68 -179.56,-394.24 -394.24,-394.24l-5746.83 0c-182.88,0 -379.08,171.07 -379.08,394.24zm1394.73 1960.5l0 1822.81c0,190.48 189.13,279.56 348.66,368.32 300.93,167.44 318.02,214.98 635.66,214.98 129.81,0 249.03,-79.7 305.97,-155.81 61.72,-82.5 95.05,-223.99 95.05,-366.73l0 -1689.14c0,-99.21 -60.67,-72.92 -255.2,-72.92 -56.24,0 -36.67,97 -36.47,157.96l0.01 1397.51c0,132.18 14.3,269.67 -36.24,352.62 -142.16,233.34 -501.35,-49.63 -722.91,-176.78 -30.9,-17.74 -55.05,-18.48 -55.05,-54.33l0 -1786.36c0,-44.34 102.34,-82.67 177.15,-126.65 69.8,-41.03 131.27,-79.41 199.56,-116.39 182.09,-98.61 1166.44,-686.48 1204.76,-688.87 49.37,-3.09 1045.89,597.74 1205.53,684.7l300.3 173.63c31.67,17.81 84.4,30.44 84.4,73.58l0 1786.36c0,39.66 -175.13,123.31 -239.21,161.81 -87.96,52.85 -165.5,93.87 -253.72,147.3l-1016.21 587.95c-97.06,60.55 -79.31,44.72 -259.8,-63.82 -45.41,-27.32 -75.9,-45.46 -121.52,-72.91 -182.78,-109.98 -121.28,-70.08 -281.06,-3.2 -56.24,23.54 -105.21,25.33 -137.37,69.22 28.34,42.31 109.16,81.24 157.3,110.04 105.41,63.08 430.88,278.82 535.37,278.82 150.08,0 175.95,-27.6 322.94,-114.54 83.6,-49.45 156.58,-89.13 238.4,-138.32l953.93 -552.93c171.42,-95.79 380.46,-183.78 380.46,-385.12l0 -1822.81c0,-113.12 -58.82,-199.96 -126.26,-250.45l-722.05 -420.25c-81.82,-49.19 -154.8,-88.87 -238.4,-138.32 -134.38,-79.48 -628.05,-394.04 -748.26,-394.04 -176.29,0 -173.54,31.44 -323.93,113.54l-1438.49 833.96c-69.24,49.21 -133.31,137.05 -133.31,255.56zm1567.62 546.84c0,608.5 920.47,402 1177.06,585 92.57,66.02 114.45,350.72 -314.26,350.72 -204.66,0 -527.48,23.5 -597.32,-204.72 -47.07,-153.84 28.95,-135.54 -265.48,-135.54 -132.83,0 -53.48,619.76 656.21,619.76 240.08,0 455.81,8.03 658.75,-118.99 213.53,-133.65 228.36,-258.48 228.36,-476.47 0,-53.79 -30.76,-127.82 -53.28,-165.46 -205.47,-343.27 -1174.08,-213.01 -1174.08,-430 0,-96.03 7.64,-150.48 96.49,-195.16 112.85,-56.76 651.34,-130.45 752.71,148 51.35,141.06 -6.64,120.08 268.79,120.08 119.06,0 18.77,-328.92 -150.59,-457.01 -283.26,-214.24 -1283.35,-253.22 -1283.35,359.79z"/>
 </g>
</svg>
