<?xml version="1.0" encoding="UTF-8"?>
<!DOCTYPE svg PUBLIC "-//W3C//DTD SVG 1.1//EN" "http://www.w3.org/Graphics/SVG/1.1/DTD/svg11.dtd">
<!-- Creator: CorelDRAW 2020 (64 Bit) -->
<svg xmlns="http://www.w3.org/2000/svg" xml:space="preserve" width="131.596mm" height="131.596mm" version="1.1" style="shape-rendering:geometricPrecision; text-rendering:geometricPrecision; image-rendering:optimizeQuality; fill-rule:evenodd; clip-rule:evenodd"
viewBox="0 0 1146.1 1146.1"
 xmlns:xlink="http://www.w3.org/1999/xlink"
 xmlns:xodm="http://www.corel.com/coreldraw/odm/2003">
 <defs>
  <style type="text/css">
   <![CDATA[
    .fil0 {fill:#1F1F1F}
   ]]>
  </style>
 </defs>
 <g id="Camada_x0020_1">
  <metadata id="CorelCorpID_0Corel-Layer"/>
  <path class="fil0" d="M-0 69.3l0 1007.5c0,21.06 8.64,36.19 19.22,47.41 9.53,10.11 28.8,21.89 47.41,21.89l1010.17 0c37.74,0 69.3,-31.56 69.3,-69.3l0 -1007.5c0,-37.74 -31.56,-69.3 -69.3,-69.3l-1010.17 0c-32.15,0 -66.63,30.07 -66.63,69.3zm324.03 501.19l0 -166.29c63.95,-4.98 159.96,-5.94 158.18,82.71 -1.72,85.58 -89.97,87.21 -158.18,83.57zm321.07 147.18c-4.64,6.35 -2.15,54.01 -2.15,66.22 0,33.72 -4.5,31.77 26.31,42.13 57.83,19.45 145.1,21.87 202.95,-10.04 19.92,-10.99 38.4,-31.04 48.63,-54.12 7.45,-16.8 10.55,-37.43 9.15,-57.96 -4.13,-60.57 -52.93,-86.93 -99.19,-107.2 -16.25,-7.12 -33.13,-12.37 -48.88,-20.03 -13.17,-6.41 -35.07,-16.41 -35.05,-33.28 0.05,-44.2 103.94,-22.4 131.38,-12.2 33.88,12.6 31.72,19.56 31.72,-17.18 0,-70.03 7.9,-67.11 -26.13,-76.53 -32.63,-9.03 -90.73,-11.68 -125.06,-5.92 -43.46,7.29 -69.3,24.46 -89.62,48.14 -20.29,23.64 -32.59,67.38 -20.38,105.9 24.18,76.28 123.54,89.68 160.42,115.13 18.87,13.02 18.57,33.65 1.17,42.14 -29.84,14.56 -87.42,4.37 -118.14,-5.34 -16.28,-5.15 -43.95,-19.99 -47.15,-19.86zm-427.63 -408.29c-2.86,8.66 -1.25,230.12 -1.25,258.84l0 196.48c0,75.31 -5.76,64.97 26.57,64.97l67.8 0.03c6.14,0.04 8.5,0.64 11.59,-2.63 3.28,-5.98 1.35,-142.96 1.35,-162.42 7.3,-1.9 48.3,0.38 60.05,0.07 83.73,-2.17 168.27,-30.8 196.57,-115.97 11.18,-33.66 13.2,-75.5 4.34,-111.13 -16.36,-65.84 -62.04,-104.47 -127.96,-122.67 -47.56,-13.13 -124.24,-8.82 -177.61,-7.45 -17.01,0.44 -46.49,-0.43 -61.45,1.88z"/>
 </g>
</svg>
