<?xml version="1.0" encoding="UTF-8"?>
<!DOCTYPE svg PUBLIC "-//W3C//DTD SVG 1.1//EN" "http://www.w3.org/Graphics/SVG/1.1/DTD/svg11.dtd">
<!-- Creator: CorelDRAW 2020 (64 Bit) -->
<svg xmlns="http://www.w3.org/2000/svg" xml:space="preserve" width="131.596mm" height="131.596mm" version="1.1" style="shape-rendering:geometricPrecision; text-rendering:geometricPrecision; image-rendering:optimizeQuality; fill-rule:evenodd; clip-rule:evenodd"
viewBox="0 0 2902.83 2902.83"
 xmlns:xlink="http://www.w3.org/1999/xlink"
 xmlns:xodm="http://www.corel.com/coreldraw/odm/2003">
 <defs>
  <style type="text/css">
   <![CDATA[
    .fil0 {fill:#1F1F1F}
   ]]>
  </style>
 </defs>
 <g id="Camada_x0020_1">
  <metadata id="CorelCorpID_0Corel-Layer"/>
  <path class="fil0" d="M-0 175.52l0 2551.79c0,53.33 21.89,91.66 48.69,120.08 24.14,25.6 72.95,55.44 120.08,55.44l2558.54 0c95.58,0 175.52,-79.94 175.52,-175.52l0 -2551.79c0,-95.58 -79.94,-175.52 -175.52,-175.52l-2558.54 0c-81.42,0 -168.77,76.16 -168.77,175.52zm1922.77 1620.65c0.31,13.83 6,31.95 8.77,47.59 16.67,93.79 29.02,208.12 -2.64,299.31 -13.14,37.86 -35.61,70.73 -85.56,70.73 -91.37,0 -205.38,-76.45 -274.95,-135 -6.48,-5.45 -11.66,-9.93 -18.24,-15.07 -12.54,-9.8 -22.2,-20.86 -34.78,-29.28l56.37 -64.05c28.01,-36.55 56.93,-66.9 90.07,-112.34 17.77,-24.37 7.04,-18.16 55.76,-23.67 77.36,-8.74 132.23,-21.22 205.19,-38.22zm-650.79 -345.89c0,167.52 213.16,251.89 323.95,106.17 8.04,-10.57 11.12,-17.65 16.86,-29.27 5.26,-10.67 9.55,-21.52 12.19,-33.92 13.44,-63.04 -2.5,-121.9 -46.18,-165.33 -122.25,-121.54 -306.83,-23.23 -306.83,122.35zm-315.15 579.05c0,-62.73 0.46,-76.53 8.13,-140.48 1.87,-15.61 12.54,-79.8 17.49,-90.12l202.41 35.87c58.66,6.49 33.34,-5.19 100.98,80.93l103.99 118.92c-7.16,4.8 -80.62,68.77 -110.18,89.67 -57.42,40.6 -220.75,139.66 -279.72,64.51 -27.3,-34.79 -43.11,-97.66 -43.11,-159.3zm389.45 -181.91c8.02,0.67 9.1,2.56 17.94,2.56 36.41,0 166.22,3.48 192.16,-2.56 -3.86,14.44 -93.26,115.09 -105.05,122.98 -4.31,-6.43 -90.83,-96.11 -105.05,-122.98zm397.14 -105.05c2.37,-10.18 8.07,-15.49 12.69,-23.18l40.31 -67.3c9.16,-15.24 17.59,-29.99 25.58,-46.16 4.55,-9.2 20.31,-40.75 26.47,-45.27 3.06,13.13 8.69,23.1 13.14,35.54 11.38,31.85 31.06,85.39 38.11,115.62l-115.06 23.3c-10.07,2.02 -33.71,3.83 -41.23,7.45zm-689.23 -181.91c6.81,4.99 28.72,51.95 38.55,69.07l69.07 112.85c-24.74,-5.76 -52.14,-8.57 -78.36,-13.87 -27.8,-5.62 -52.14,-10.86 -77.93,-16.87 0.23,-10.27 7.12,-29.62 9.92,-38.76l25.63 -74.3c3.51,-9.78 12.31,-28.18 13.13,-38.11zm48.68 -107.61c0,-15.03 89.41,-171.73 108.72,-203.87l61.43 -94.86c8.96,-8.54 87.12,-10.4 103.99,-11.31l148.7 -0.07c13.71,0.41 19.21,2.84 35.77,2.66 16.34,-0.18 23.24,1.95 35.89,2.54 34.13,1.59 23.8,-6.56 47.65,29.22l46.11 71.75c21.04,32 108.65,187.08 108.65,201.37 0,15.71 -68.29,136.72 -80.22,158.07 -14.65,26.21 -28.72,48.26 -44.25,73.61l-47.2 73.22c-14.09,0 -22.07,2.12 -38.48,2.51 -44.31,1.05 -69.07,5.17 -122.94,5.17l-182.85 -6.75c-11.83,-2.74 -6.3,1.27 -19.56,-18.87 -5.53,-8.4 -10.33,-15.51 -16.4,-24.6 -43.33,-65 -54.95,-89.45 -91.33,-152.08 -6.42,-11.06 -53.69,-100.44 -53.69,-107.72zm-184.48 -235.72c3.45,41.43 84.55,229.86 84.55,235.72l-44.65 114.21c-7.76,20.21 -13.38,38.08 -20.37,59.05 -6.94,20.8 -14.62,41.37 -19.53,62.46 -11.05,-5.3 -73.01,-24.54 -103.23,-37.69 -48,-20.88 -75.45,-36.35 -117.93,-61.42 -43.74,-25.82 -113.79,-85.01 -113.83,-136.59 -0.01,-18.74 9.56,-38.05 17.76,-50.8 22.58,-35.11 78.68,-79.5 115.7,-99.52 40.22,-21.76 52.35,-28.97 95.77,-47.71 16.91,-7.3 34.17,-14.38 51.62,-20.12 17.45,-5.74 34.85,-13.1 54.15,-17.59zm1065.87 0c14.73,1.22 37.78,12.13 52.19,16.99 19.58,6.6 33.32,12.67 51.75,19.99 10.02,3.99 15.86,6.16 25.04,10.83 9.33,4.74 15.94,7.03 24.75,11.12l108.74 68.04c20.5,15.28 57.31,54.12 65.9,77.58 18.74,51.18 -7.44,82.67 -44.59,120.22 -20.51,20.73 -57.52,45.04 -83.12,60.36 -46.8,28 -96.19,48.88 -147.22,68 -16.67,6.24 -38.75,11.26 -53.43,18.3l-17.57 -61.85c-3.77,-11.31 -7.21,-18.72 -10.95,-30.04 -3.28,-9.9 -6.39,-19.9 -10.62,-30.37l-46.27 -113.96 85.43 -235.22zm-240.85 -53.81l77.1 12.57c13.11,2.6 25.76,4.97 38.19,7.93 9.84,2.34 28.16,7.46 38.43,7.69 -0.37,16.5 -17.54,61.62 -22.73,77.19l-25.95 73.98c-6.02,-4.41 -21.24,-34.72 -25.61,-43.57l-73.35 -123.94c-0.39,-0.6 -2.9,-4.5 -3,-4.69 -2.32,-4.26 -2.29,-5.62 -3.1,-7.15zm-686.66 181.91l-1.88 -3.24c-0.1,-0.19 -2.49,-5.06 -2.54,-5.15 -2.03,-4.54 -1.9,-4.72 -3.66,-9.15 -12.36,-31.22 -39.42,-109.06 -45.73,-136.18l156.29 -28.18c-2.09,7.85 -20.41,34.41 -25.77,43.41 -8.85,14.89 -17.62,28.98 -26.96,44.78l-49.76 93.73zm289.53 -289.52c17.24,-25.75 41.98,-54.4 63.45,-77.48 5.77,-6.21 6.63,-9.12 12.73,-15.45 11.79,-12.25 16.66,-15.63 26.31,-30.05 13.8,9.24 96.45,106.31 107.61,122.99l-135.79 -2.56c-28.2,0 -46.42,2.56 -74.3,2.56zm169.1 -184.48c13.91,-20.76 112.82,-96.5 137.54,-110.99 13.75,-8.06 23.87,-15.83 38.37,-23.12 70.21,-35.32 188.69,-94.44 231.89,13.29 25.05,62.48 22.66,109.4 22.66,177.19 0,36.68 -15.41,158.07 -25.62,179.35 -38.54,-8.98 -78.64,-17.93 -118.56,-24.92 -30.04,-5.27 -98.77,-16.07 -127.41,-16.07 -2.46,-9.23 -29.12,-40.41 -36.61,-50.51 -6.89,-9.29 -12.15,-15.23 -19.03,-24.53 -17.45,-23.63 -44.41,-51.33 -60.75,-72.49l-42.48 -47.2zm-286.96 194.73c-28.89,0 -97.28,10.83 -127.41,16.07l-89.38 18.24c-9.99,2.28 -22.99,5.96 -31.74,6.69 -0.5,-22.33 -25.62,-107.99 -25.62,-210.1 0,-68.1 12.04,-163.15 61.4,-194.81 14,-8.98 19.12,-9.07 40.73,-10.68 27.87,-2.08 58.44,5.35 83.47,14.77 51.18,19.27 89.25,41.4 133.16,71.82 19.81,13.73 40.82,28.61 58.46,44.03 9.86,8.62 50.52,41.37 55.8,49.25l-102.53 117.82c-6.42,8.42 -12.18,15.49 -19.01,24.54 -7.01,9.3 -35.26,44.68 -37.31,52.37zm220.35 -258.78l-37.83 -33.91c-98.58,-87.87 -309.6,-228.68 -441.83,-145.98 -119.01,74.44 -109.57,282.8 -92.16,405.81l18.39 99.47 -68.1 21.58c-23.31,9.02 -41.3,16.69 -63.67,26 -58.66,24.42 -146.33,74.97 -191.71,120.87 -22.98,23.25 -43.6,47.55 -58.34,77.45 -23.52,47.73 -23.71,99.1 0.05,146.12 4.87,9.63 9.38,19.77 15.36,28.2 57.89,81.59 145.29,131.07 235.7,171.68 22.44,10.08 112.46,46.91 133.28,48.64 -2.85,5.93 -6.88,27.92 -8.77,37.35 -8.93,44.79 -12.26,76.04 -17.27,123.66 -5.96,56.7 -5.16,118.37 4.03,173.57 46.62,280.07 286.91,211.8 454.62,87.79l62.47 -47.7c7.98,-6.51 13.02,-11.29 20.68,-17.76l40.23 -34.08 47.89 41.79c4.23,3.56 4.92,4.71 9.56,8.37 77.76,61.48 209.36,154.81 314.07,154.81 49.58,0 77.74,0.61 120.09,-31.08 113.91,-85.26 100.5,-311.29 74.01,-442.29 -2.47,-12.23 -7.5,-44.68 -12.18,-54.44 11.16,-2.6 21.92,-6.89 32.98,-10.57 121.31,-40.42 193.32,-76.92 289.1,-156.72 10.19,-8.49 13.47,-15.16 21.9,-24.22 28.92,-31.09 55.72,-76.68 55.72,-131.32 0,-112.31 -124.52,-197.61 -207.57,-240.81 -38.74,-20.15 -153.67,-73.7 -192.13,-76.9l19.09 -114.14c21.66,-148.77 15.24,-418.79 -190.75,-418.79 -17.86,0 -50.26,5.95 -64.39,9.92 -44.52,12.49 -65.93,22.09 -106.43,42.18 -45.76,22.69 -115.78,71.45 -154.01,104.77l-39.76 34.54c-4.62,3.9 -5.34,3.81 -10,7.93 -6.78,6.01 -2.98,5.71 -12.3,8.2z"/>
 </g>
</svg>
