<?xml version="1.0" encoding="UTF-8"?>
<!DOCTYPE svg PUBLIC "-//W3C//DTD SVG 1.1//EN" "http://www.w3.org/Graphics/SVG/1.1/DTD/svg11.dtd">
<!-- Creator: CorelDRAW 2020 (64 Bit) -->
<svg xmlns="http://www.w3.org/2000/svg" xml:space="preserve" width="134.837mm" height="192.352mm" version="1.1" style="shape-rendering:geometricPrecision; text-rendering:geometricPrecision; image-rendering:optimizeQuality; fill-rule:evenodd; clip-rule:evenodd"
viewBox="0 0 1650.4 2354.38"
 xmlns:xlink="http://www.w3.org/1999/xlink"
 xmlns:xodm="http://www.corel.com/coreldraw/odm/2003">
 <defs>
  <style type="text/css">
   <![CDATA[
    .fil0 {fill:black}
   ]]>
  </style>
 </defs>
 <g id="Camada_x0020_1">
  <metadata id="CorelCorpID_0Corel-Layer"/>
  <g id="_1861770891744">
   <g id="Character_x002f_selfie">
    <g id="Ink">
     <g>
      <path id="ink-shape" class="fil0" d="M1579.37 371.23c-1.87,14.56 -0.54,30.44 -16.98,34.28 -15.21,3.56 -31.91,2.56 -47.42,3.8 -17.43,1.4 -34.81,3.31 -52.21,5.04 -21.93,2.17 -18.8,-6.26 -23.6,-24.99 -4.38,-17.1 -11.37,-34.18 -17.19,-50.86 -2.7,-7.75 -5.93,-14.89 -9.62,-22.19 -3.34,-6.61 -1.75,-15.61 -5.35,-21.17 -12.28,-18.97 -72.17,32.9 -77.73,22.68 10.13,-7.89 27.67,-16.71 30.78,-30.22 3.65,-15.87 -6.43,-20.6 -19.09,-14.8 -31.17,14.28 -67.15,25.44 -101.14,30.65 11,-7.35 110.44,-65.28 77.07,-82.46 -7.52,-3.87 -17.57,3.42 -24.35,6.18 -10.77,4.38 -22.01,7.31 -33.25,10.18 -11.84,3.02 -23.71,5.93 -35.62,8.68 -8.35,1.93 -23.24,8.78 -31.38,7.09 -8.26,-1.72 6.37,-6.85 8.77,-8.06 10.45,-5.26 20.73,-10.92 30.93,-16.65 18.1,-10.16 34.81,-21.94 48.58,-37.65 10.39,-11.86 27.53,-37.75 20.3,-54.15 -4.19,-9.5 -13.37,-18.29 -18.77,-27.29 -6.3,-10.52 -11.38,-21.73 -16.85,-32.68 9.16,4.03 19.43,5.06 28.78,8.67 9.35,3.62 18.84,6.54 28.56,9.23 19.51,5.39 38.95,6.35 58.29,10.72 21.88,4.95 44.68,10.48 66.91,13.34 19.36,2.49 36.76,7.78 53.35,18.34 33.87,21.56 57.36,52.53 69.24,90.82 6.96,22.43 8.66,45.84 9.48,69.18 0.87,24.61 2.68,49.79 -0.47,74.29l0 0zm-190.07 1.81c-23.65,17.24 -51.22,30.71 -76.6,45.38 -14.52,8.39 -29.36,16.23 -44.17,24.1 -10.51,5.58 -23.29,15.85 -34.86,18.71 -7.32,1.81 -6.78,1.95 -11.41,-4.72 -4.43,-6.37 -8.3,-13.24 -12.44,-19.8 -7.64,-12.1 -15.35,-24.16 -23.07,-36.22 -17.29,-27.03 -34.55,-54.05 -52.71,-80.5 -18.23,-26.54 -35.71,-53.57 -53.36,-80.49 -8.21,-12.51 -16.36,-25.08 -25.07,-37.25 -6.65,-9.29 -23.7,-23.47 -15.6,-34.41 7.52,-10.16 24.65,-18.61 34.78,-26.3 12.38,-9.39 24.84,-18.69 37.18,-28.13 26.55,-20.3 52.4,-41.47 78.92,-61.8 22.51,39.48 48.99,76.49 75.7,113.19 -24.15,15.41 -48.55,30.06 -74.01,43.26 -18.8,9.75 -47.56,22.91 -59.43,41.4 -11.7,18.2 -0.21,39.21 20.64,39.54 12.47,0.2 24.9,-3.1 37.12,-4.99 8.82,-1.36 24.94,-7.72 32.89,-3.24 -14.3,9.12 -66.18,35.72 -38.22,59.03 19.99,16.67 53.79,-7.65 75.38,-2.65 -6.58,12.63 -13.42,32.78 4.85,39.65 15.2,5.72 35.11,-4.94 48.79,-10.59 9.89,-4.08 19.71,-8.3 29.44,-12.76 7.73,-3.55 16.99,-10.73 25.25,-12.26 9.64,-1.79 29.27,25.08 19.99,31.84l0 0zm-439.66 931.06c13.53,-2.47 20.48,-8.06 24.74,8.36 3.82,14.72 7.6,28.89 12.52,43.34 -21.14,1.83 -39.78,11.92 -55.19,26.11 -10.98,10.12 -32.81,34.26 -27.39,51.2 13.15,41.16 79.55,-51.18 87.44,-61.05 9.66,14.12 13.21,32.6 18.01,48.75 3.42,11.49 16.1,33.52 -0.67,36.31 -23.54,3.92 -67.69,12.69 -64.9,46.02 3.3,39.35 53.35,39.12 81.43,40.89 15.83,0.99 15.9,13.68 18.16,27.88 1.01,6.35 4.16,14.93 -1.23,19.58 -4.79,4.12 -19.45,4.24 -25.68,5.57 -18.16,3.9 -36.31,7.88 -54.47,11.77 -20.62,4.42 -31.52,-1.77 -50.79,-7.42 -7.14,-2.09 -14.3,-1.21 -14.83,-9.2 -0.32,-4.9 4.47,-12.48 6.05,-17.33 6.22,-19.18 11.52,-38.93 13.3,-59.07 2.6,-29.27 -0.65,-73.15 -36.69,-78.86 -17.15,-2.72 -20.44,-3.6 -28.18,-19.7 -8.37,-17.4 -21.66,-33.52 -18.45,-53.56 2.32,-14.53 -1.6,-42.01 7.67,-54.06 4.29,-5.57 12.64,-8.89 18.34,-12.98 7.27,-5.21 14.26,-10.79 21.04,-16.63 5.7,-4.91 12.64,-14.5 19.1,-18.04 7.89,-4.33 8.13,-1.38 13.8,5.39 8.36,9.99 21.66,39.5 36.87,36.72l0 0zm38.25 65.03c-4.69,9.47 -15.53,18.26 -22.43,26.17 -6.94,7.95 -13.52,16.34 -21.26,23.55 -8.52,7.93 -38.8,27.08 -32.13,1.3 5.19,-20.05 24.61,-36.29 41.71,-46.29 3.31,-1.94 42.05,-20.74 34.11,-4.73l0 0zm33.12 95.44c3,13.42 4.62,27.25 7.18,40.77 1.31,6.91 8.58,23.6 5.62,30.24 -5.02,11.26 -50.19,-2.07 -59.55,-5.94 -22.29,-9.23 -32.52,-32.91 -11.97,-49.78 7.79,-6.39 55.72,-28.7 58.72,-15.28l0 0zm29.61 161.16c2.52,12.81 9.88,24.69 -2.29,34.37 -10.1,8.04 -26.65,13.53 -39.1,16.39 -16.97,3.9 -22.42,-5.61 -31.41,-17.84 -9.66,-13.15 -19.94,-25.86 -30.6,-38.2 33.5,-7.5 66.99,-15 100.49,-22.5 -0.02,9.33 1.11,18.63 2.91,27.77l0 0zm-80.26 59.45c-17.47,-0.9 -36.26,4.35 -53.98,5.74 -22.13,1.73 -44.19,4.24 -66.33,5.73 5.67,-18.1 15.86,-34.24 23.83,-51.34 8,-17.16 13.61,-19.01 32.01,-20.34 17.05,-1.23 29.07,-7.09 41.65,7.37 13.09,15.04 24.94,31.38 36.89,47.33 -4.07,2.72 -8.92,5.79 -14.08,5.52l0 0zm-124.87 3.7c-4.31,3.14 -17.6,-5.79 -22.08,-7.52 -8.71,-3.37 -10.65,-4.45 -15.19,-12.95 -3.91,-7.31 -10.12,-15.61 -11.35,-23.95 -1.61,-10.99 3.25,-25.47 5.02,-36.39 4.72,11.37 20.2,12.69 30.66,14.55 7.91,1.41 31.35,-0.83 37.32,4.8 6.59,6.23 -5.54,23.59 -8.7,30.12 -3.77,7.81 -8.43,26.06 -15.68,31.33l0 0zm-8.45 9.02c-5.19,0.84 -20.12,6 -19.82,-3.47 0.34,-10.82 20.88,0.85 19.82,3.47l0 0zm-26.3 -0.57c-0.95,9.11 -20.56,8.36 -21,0.34 -0.76,-13.55 22.51,-14.89 21,-0.34l0 0zm-22.42 -245.73c-5.01,14.28 -35.55,19.38 -47.27,23.78 -10.71,4.01 -42.7,22.55 -53.74,15.82 37.38,-25.69 75.68,-50.86 107.35,-83.66 1.3,8.1 -0.68,14.87 -3.07,22.54 -2.15,6.92 -1.05,15.19 -3.27,21.52l0 0zm-9.3 52.06c-5.38,34.97 -10.66,70.41 -17.94,105.03 -13.87,-4.24 -25.31,-12.83 -39.88,-15.82 -13.3,-2.73 -27.04,-2.8 -40.44,-0.8 -28.57,4.25 -54.04,18.38 -78.97,32.15 -2.3,-23.98 -7.07,-49.65 -6.51,-73.72 0.47,-19.99 34.68,-25.91 50.2,-34.17 9.39,-5 17.88,-12.02 28.57,-13.77 11.01,-1.8 21.63,-1.74 32.5,-5.1 25.71,-7.93 49.9,-20.51 75.08,-29.88 2.06,12.01 -0.8,24.24 -2.63,36.07l0 0zm-24.02 148.02c-1.14,7.95 0.3,22.14 -5.76,28.2 -5.71,5.71 -17.89,5.89 -25.41,7.44 -22.92,4.72 -45.81,9.48 -68.7,14.34 -10.24,2.18 -20.48,4.25 -30.76,6.2 -4.9,0.93 -17.2,5.63 -21.33,1.73 -3.92,-3.71 -1,-15.54 -0.79,-20.51 0.42,-9.92 0.98,-19.87 0.36,-29.79 -1.19,-19.04 -0.13,-26.33 17.58,-36.17 18.82,-10.47 38.26,-17.63 59.45,-21.51 21.45,-3.93 41.89,-1.78 62.3,6.45 5.68,2.29 14.2,5.11 16.85,11.24 3.59,8.34 -2.57,23.94 -3.78,32.39l0 0zm-25.8 306.83c-8.4,5.27 -26.68,4.37 -36.33,5.44 -15.58,1.72 -31.26,0.74 -46.74,-1.67 -11.65,-1.81 -29.04,-4.31 -37.97,-12.49 -12.69,-11.62 1.95,-12.16 11.66,-11.34 28.23,2.37 56.82,0.72 85.02,-1.32 5.49,-0.4 20.25,-5.22 25.55,-2.96 6.77,2.88 4.7,20.66 -1.19,24.35l0 0zm-16.01 187.84c-52.6,-5.11 -83.09,-48.67 -102.17,-93.19 -10.24,-23.91 -6.55,-48.99 -7.56,-74.27 -0.18,-4.62 -3.08,-16.08 1.66,-19.52 4.46,-3.24 22.5,6.78 27.38,7.97 25.02,6.13 52.69,6.72 77.76,0.76 10.86,-2.58 16.94,-7.38 20.4,3.39 2.78,8.67 -1.78,24.64 -2.28,33.73 -0.86,15.71 1.6,142.76 -15.2,141.13l0 0zm-105.07 0.05c-0.2,-7.63 -4.05,-84.73 -0.32,-84.96 11.1,23.94 22.5,45.35 42.7,62.96 10.32,9 21.92,17.11 34.83,21.94 4.85,1.81 32.32,3.19 33.67,9.21 2.35,10.53 -16.4,6.28 -21.96,5.42 -4.46,-0.69 -8.48,-2.59 -12.86,-3.39 -8.34,-1.51 -16.23,0.52 -24.61,0.69 -12.73,0.26 -25.23,-1.08 -37.97,0.03 -11.64,1 -13.17,-0.33 -13.48,-11.9l0 0zm7.76 -345.81c45.03,-14.55 82.66,13.01 106.42,49.09 13.55,20.57 16.58,34.96 14.21,59.32 -0.85,8.72 0.72,14.62 -7.3,18.18 -7.94,3.52 -25.97,0.91 -34.55,1.31 -24.69,1.15 -49.29,2.69 -73.99,1.22 -16.04,-0.95 -18.31,-3.67 -18.03,-19.24 0.33,-18.74 -1.23,-37.4 -2.29,-56.18 -1.15,-20.31 -8.12,-46.06 15.52,-53.7l0 0zm-14.73 -27c0.03,-13.77 -0.8,-27.9 0.04,-41.65 0.84,-13.63 6.64,-12.96 19.51,-15.28 27.87,-5.04 55.7,-10.68 83.2,-17.51 10.87,-2.7 23.16,-7.88 34.49,-7.93 11.89,-0.05 11.26,6.07 10.47,16.59 -1.76,23.31 -6.03,46.29 -7.33,69.48 -1.4,25.03 -2.14,50.38 -2.03,75.44 0.04,8.46 2.09,14.72 -5.12,6.81 -7.22,-7.93 -10.75,-20.56 -17.2,-29.47 -13.2,-18.25 -32.83,-32.92 -54.61,-39.1 -12.04,-3.42 -24.71,-4.01 -36.98,-1.54 -3.72,0.75 -22.38,9.65 -24.76,7.89 -1.61,-1.19 0.31,-23.17 0.31,-23.72l0 0zm164.73 477.3c17.86,12.79 37.64,23.12 57.66,32.09 11.27,5.05 55.86,15.67 57.28,27.03 0.76,6.06 -6.63,12.85 -11.47,13.57 -6.14,0.91 -16.26,-3.1 -22.51,-3.86 -22.74,-2.76 -45.44,-2.78 -67.63,-9.11 -44.3,-12.65 -90.24,-16.21 -135.01,-27.23 -10.65,-2.62 -21.33,-5.08 -32.03,-7.46 -10.17,-2.26 -14.73,-1.87 -15.08,-12.74 -0.79,-23.85 6.05,-48.29 6.1,-72.43 36.22,4.13 72.55,4.08 108.87,7.48 15.56,1.46 15.2,4.41 22.02,18 7.08,14.11 19.12,25.57 31.81,34.65l0 0zm-176.58 -774.88c-0.46,-8.83 -0.82,-17.68 -1.62,-26.49 -0.54,-5.92 -5.94,-22.45 -2.89,-27.06 3.62,-5.47 7.27,-2.13 13.74,-2.28 8.54,-0.2 15.69,-3.63 22.73,-8.13 13.33,-8.5 23.25,-19.7 31.9,-32.77 7.61,-11.5 6.2,-27.21 6.1,-40.98 -0.24,-35.6 2.35,-70.33 0.18,-106.09 -1,-16.43 13.02,-6.35 24.35,-4.23 18.52,3.48 38.65,1.07 57.47,1.12 -0.7,4.38 -39.19,15.25 -45.41,19.39 -15.92,10.59 -25.2,27.53 -23.75,46.83 2.92,38.85 45.71,45.34 76.97,45.42 -25.94,22.94 -51.41,44.8 -71.8,73.09 -15.03,20.86 -41.5,61.99 -16.93,85.07 -21.72,12.34 -43.25,26.06 -67.82,32 -1.1,-18.3 -2.28,-36.59 -3.23,-54.9l0 0zm-9.86 -709.16c8.84,5.68 12.56,-2.35 19.29,-6.51 9.48,-5.86 12.62,-5.29 13.82,-18.37 2.22,-24.27 -7.99,-46.24 -20.81,-66.11 -5.83,-9.03 -11.64,-19.78 -19.87,-26.84 -7.5,-6.43 -15.08,-4.22 -22.03,-10.87 -2.73,-2.62 -2.14,-6.31 -6.65,-6.2 -2.97,0.07 -10.18,9.27 -12.64,11.3 -7.75,6.41 -17.22,11.3 -27.37,6.01 -14.78,-7.7 -10.03,-35.63 1.45,-44.68 8.84,-6.97 19.29,-5.89 29.35,-7.02 7.55,-0.84 9.12,-0.51 6.01,-9.15 -2.18,-6.05 -7.19,-10.77 -9.67,-16.68 -4.76,-11.36 -3.72,-25.16 -5.78,-37.18 -1.85,-10.77 -6.17,-22.42 -6.01,-33.36 0.2,-13.93 4.76,-17.55 16.82,-21.45 11.69,-3.78 21.37,-12.12 31.33,-19.13 11.27,-7.93 23.62,-13.17 35.2,-20.41 7.86,-4.92 12.94,-14.86 21.59,-10.22 10.27,5.52 21.14,21.49 29.88,29.65 -12.79,8.12 -15.76,11.66 -14,27.55 1.62,14.56 4.59,27.54 15.72,37.69 4.28,3.9 12.25,7.02 15.57,11.52 3.87,5.24 1.35,0.62 0.87,6.53 -0.26,3.19 -2.78,5.27 -2.23,8.96 2.45,16.37 21.26,6.71 29.01,1.02 27.69,-20.32 -24.01,-36.45 -36.29,-43.85 -8.48,-5.11 -12.67,-21.43 0.76,-17.1 8.94,2.88 29.12,27.33 31.17,5.05 22.16,12.87 35.83,40.22 54.41,57.51 13.4,12.47 31.4,26.3 20.76,46.22 -13.55,25.38 -40.43,36.91 -64.96,47.86 -23.8,10.62 -18.85,40.68 -6.14,59.08 7.35,10.64 16.99,16.87 28.58,22.04 11.84,5.28 14.3,11.49 16.89,23.74 2.87,13.59 -0.18,19.07 -11.95,26.09 -11.49,6.86 -23.5,13.5 -35.77,18.87 -26.53,11.61 -54.04,12.34 -82.26,16.3 -9.89,1.39 -19.37,4.27 -24.77,-5.53 -6.07,-11.03 -6.51,-30.03 -9.3,-42.33l0 0zm-4.26 -52.79c-6.64,-3.5 -22.67,8.12 -31.06,8.63 -13.58,0.82 -22.49,0.51 -34.55,7.71 -22.78,13.61 -41.69,31.14 -59.96,50.15 -20.58,21.41 -41.04,42.93 -61.55,64.41 -9.3,9.73 -18.64,19.4 -28.08,28.98 -7.44,7.55 -14.72,18.17 -23.93,23.56 0.48,-6.4 4.4,-10.93 5.8,-16.86 0.81,-3.47 -0.61,-6.41 -0.08,-9.73 0.17,-1.08 3.07,-4.83 3.51,-6.06 1.18,-3.24 2.61,-6.45 4.01,-9.82 1.3,-3.15 1.11,-6.41 2.43,-9.69 1.36,-3.39 5.08,-5.63 6.37,-8.96 3.78,-9.76 -2.48,-14.29 -12.49,-14.06 3.92,-19.53 5.63,-29.09 26.06,-35.98 19.51,-6.58 38.58,-13.97 56.5,-24.25 15.92,-9.13 29.2,-22.29 44.5,-32.47 13.7,-9.11 30.75,-18.66 30.61,-37.35 7.77,5.27 15.05,9.7 23.93,4.46 7.5,-4.43 8.49,-8 17.16,-8.83 7.08,-0.68 11.46,-0.86 17.78,2.25 7.43,3.66 8.45,6.2 12.78,-4.57 4.92,4.14 17.35,21.39 16.94,28.21 -0.23,3.76 -0.8,5.46 -5.46,6.45 -6.61,1.41 -6.35,-3.62 -11.21,-6.18l0 0zm-30.96 1020.62c-3.23,4.95 -16.85,4.04 -22.11,3.97 -16.03,-0.21 -21.64,-13.67 -28.67,-26.67 -11.09,-20.5 -27.67,-63.09 -9.47,-84.6 14.36,-16.98 42.33,4.41 52.13,17.24 8.46,11.08 5.95,27.7 6.73,40.99 0.66,11.21 7.78,39.29 1.39,49.06l0 0zm-43.8 7.42c-6.41,6.41 -27.22,5.05 -35.71,6.43 -15.16,2.45 -30.24,5.4 -44.94,9.88 -10.95,3.33 -21.77,12.3 -24.66,-2.96 -2.42,-12.83 -1.22,-28.22 -0.99,-41.18 0.25,-13.97 1.71,-27.77 2.93,-41.68 0.82,-9.41 -1.24,-26.71 6.44,-33.93 6.62,-6.22 22.71,-6.82 31.3,-8.88 14.11,-3.38 28.85,-7.83 43.51,-6.31 -8.56,23.22 -9.28,47.58 -0.11,70.72 2.62,6.6 26.18,43.95 22.22,47.91l0 0zm-107.82 -92.52c-3.57,34.94 -7.17,70.09 -3.73,105.2 0.21,2.09 2.71,11.69 1.62,13.19 -1.12,1.55 -10.03,2.36 -12.05,2.83 -8.03,1.9 -16.05,3.92 -24.13,5.61 -15.73,3.29 -17.78,-6.65 -20.87,-21.22 -6.61,-31.23 6.21,-65.09 13.97,-95.08 3.78,-14.61 6.59,-16.29 20.95,-17.5 9.99,-0.84 25.75,-7.88 24.23,6.97l0 0zm-60.73 130.33c-6.01,5.47 -12.02,-20.32 -12.55,-22.95 -2.1,-10.44 -0.93,-21.02 -0.9,-31.63 0.05,-16.56 -1.22,-33.04 -1.24,-49.52 -0.02,-8.91 -6.69,-27.14 3.85,-31.86 3.1,-1.38 15.39,-0.81 18.18,1.01 5.8,3.78 3.51,6.24 1.79,12.82 -3.85,14.78 -7.17,29.63 -10.52,44.53 -3.29,14.61 -6.53,28.67 -4.96,43.75 0.52,4.99 10.17,30.35 6.34,33.84l0 0zm191.67 -162.77c14.65,-4.13 15.43,7.1 15.41,17.84 -2.23,-1.71 -23.05,-15.68 -15.41,-17.84l0 0zm-195.97 -788.56c-3.59,5.92 -26.33,7.53 -32.83,9.09 -12.78,3.06 -25.57,6.1 -38.32,9.29 -23.89,5.97 -47.18,12.71 -71.67,15.83 13.45,-21.53 17.63,-40.12 15.13,-66.98 -3.16,-33.92 -7.17,-67.49 -14.98,-100.7 -7.7,-32.74 -16.61,-65.26 -25.19,-97.78 -4.22,-15.98 -8.78,-31.65 -14.39,-47.2 -4.5,-12.46 -11.52,-28.14 -3.89,-40.92 19.37,14.13 34.9,29.35 45.95,50.82 11.83,23.01 22.17,46.63 35.9,68.65 6.28,10.06 13.61,19.24 20.33,28.99 4,5.8 6.91,14.16 12,19.05 5.87,5.64 12.12,8.29 15.48,-1.22 3.6,-10.21 -7.88,-30.4 -11.27,-39.99 -8.18,-23.14 -16.3,-46.23 -22.61,-69.97 -5.11,-19.19 -13.54,-42.38 -10.56,-62.63 2.96,-20.04 16.56,-5.7 23.44,3.62 14.19,19.21 22.68,41.6 32,63.38 8.57,20.01 18.56,39.08 28.04,58.63 3.3,6.8 7.64,24.37 16.28,26.39 12.56,2.94 11.49,-14.74 10.29,-21.91 -7.96,-47.56 -28.73,-93.1 -33.04,-141.49 -0.21,-2.31 -3.21,-20.29 -0.8,-21.79 4.68,-2.91 11,15.33 13.01,19.8 10.5,23.24 17.82,47.74 24.53,72.3 5.71,20.88 10.87,41.92 17.28,62.6 3.52,11.37 7.56,22.55 11.53,33.76 3.6,10.16 7.25,27.52 16.64,34.21 13.31,9.5 60.96,-13.08 65.79,7.1 3.44,14.35 -40.75,25.9 -50.16,30.26 -12.39,5.73 -24.54,12.01 -36.93,17.76 -9.38,4.34 -22.87,6.12 -29.65,14.3 -7.19,8.66 -8.34,20.81 -8.56,31.55 -0.17,8.13 5.47,28.19 1.21,35.2l0 0zm-30.11 156.66c-0.63,4.51 -4.21,10.48 -5.83,14.77 -3.28,8.74 -6.07,19.19 -10.64,27.35 -3.93,7.03 -9.72,13.32 -13.52,20.46 -3.6,6.77 -4.08,14.59 -8.28,21.37 -4.81,7.75 -12.76,13.33 -17.54,21.03 -2.35,3.8 -4.79,8.14 -8.11,12.19 -11.78,14.34 -23.48,27.86 -32.95,43.21 -2.42,3.93 -14.26,21.09 -18.97,22.02 -9.85,1.93 1.62,-12.06 3.54,-14.96 13.95,-20.94 26.34,-42.98 39.81,-64.24 13.04,-20.59 26.39,-41.01 38.95,-61.91 10.24,-17.04 17.32,-41.5 33.96,-53.5 0.06,4.08 -0.07,8.15 -0.41,12.21l0 0zm454.92 -192.43c8.1,33.32 17.8,65.6 26.93,98.62 8.48,30.64 19.76,63.42 23.27,95.01 3.48,31.29 11.48,62.94 22.24,92.64 4.97,13.74 10.09,27.53 15.49,41.11 2.97,7.46 6.28,14.75 9.65,22.04 2.61,5.66 9.52,14.83 9.78,20.83 0.21,4.8 1.88,2.88 -2.86,6.49 -4.91,3.74 -13.41,2.38 -19.13,3.04 -14.91,1.72 -29.46,7.33 -43.99,10.97 -28.04,7.01 -61.46,12.57 -90.19,7.69 -12.09,-2.05 -24.64,-3.83 -36.59,-6.5 -14.71,-3.29 -17.73,-9.37 -20.74,-23.83 -6.6,-31.59 -12.29,-63.11 -17.73,-94.91 -6.48,-37.83 -13.49,-75.63 -18.49,-113.69 -5.05,-38.51 -8.68,-77.06 -16.59,-115.16 31.93,5.34 61.99,11.37 94.01,2.62 28.36,-7.75 48.83,-22.89 64.96,-46.98l0 0zm124.98 412.47c7.14,14.71 -10.07,27.94 -18.4,39.27 -10.99,14.94 -21.26,30.54 -34.05,44.05 -3.84,-15.35 -7.2,-32.62 -17.44,-45.23 -13.07,-16.1 -28.33,-9.52 -44.35,-17.14 16.8,-8.17 38.24,-5.05 56.06,-12.34 17.58,-7.19 35.32,-12.83 51.68,-22.16 2.17,4.52 4.32,9.05 6.5,13.56l0 0zm-62.29 343.22c-10.74,0.6 -3.55,-22.04 -2.86,-27.67 1.92,-15.47 3.85,-30.93 5.53,-46.42 8.86,23.36 17.71,46.71 26.56,70.07 -9.73,1.39 -19.4,3.47 -29.24,4.02l0 0zm-17.46 111.97c1.47,3.25 8.3,14.1 2.9,16.1 -7.39,2.74 -8.28,-15.23 -2.9,-16.1l0 0zm-12.81 -251.62c-34.2,27.3 -68.16,54.68 -105.16,78.19 -8.11,5.15 -16.27,7.3 -21.65,-2.91 -4.22,-8.03 0.24,-17.08 2.95,-24.94 6.91,-20.04 18.94,-37.47 32.28,-53.78 26.64,-32.57 58.34,-60.4 98.79,-73.24 6.62,-2.1 16.84,-8.44 19.15,0.31 1.37,5.15 -4.41,18.01 -5.59,22.84 -4.83,19.96 -3.78,39.95 -20.78,53.52l0 0zm98.44 199.13c0.75,23.18 -62.63,4.48 -70.52,0.34 8.29,-2.78 70.18,-10.76 70.52,-0.34l0 0zm23.53 0.14c3.77,1 18.21,2.28 12.81,7.21 -4.83,4.42 -26.69,2.65 -32.49,3.19 3.89,-12.79 6.85,-13.82 19.68,-10.4l0 0zm-11.74 -31.06c-1.42,5.16 -1.99,13.03 -6.62,16.56 -5.76,4.41 -18,1.73 -24.52,1.77 -11.07,0.06 -22.13,0.62 -33.15,1.72 -4.22,0.42 -21.29,5.57 -25.24,2.06 -2.9,-2.58 -1.82,-14.68 0.29,-17.4 4.34,-5.59 14.33,-3.65 20.6,-3.88 22.92,-0.82 45.71,-0.89 68.64,-0.83l0 0zm-14.71 -85.7c-3.24,-4.81 -3.81,-4.76 -5.19,-12.02 -1.47,-7.77 -5.23,-14.42 -7.43,-21.93 -4.85,-16.53 10.65,-15.06 22.03,-9 29.51,15.72 22.38,70.65 15.09,96.37 -10.61,-7.8 -14.52,-11.34 -18.17,-23.92 -1.39,-4.78 -2.94,-9.48 -4.39,-14.24 -1.06,-3.5 -0.32,-12.87 -1.93,-15.27l0 0zm2.56 -267.34c8.24,-0.99 15.77,24.57 13.42,30.1 -4.82,11.32 -23.22,21.42 -32.6,28.65 -6.24,4.81 -12.44,10.32 -19.11,14.51 -6.19,3.89 -9.76,1.71 -15.52,3.58 -8.33,2.7 -10.35,11.52 -18.88,15.31 -12,5.33 -26.55,6.82 -39.08,11.64 -15.21,5.84 -29.15,6 -45.09,3.23 -22.93,-3.98 -49.81,-15.36 -47.75,-43.22 3.64,-49.17 101.29,-74.36 127.91,-32.67 6.93,10.85 6.82,23.5 11.32,35.15 4.87,12.61 9.6,7.66 16.93,-1.63 9.59,-12.16 18.5,-24.96 27.71,-37.41 2.98,-4.02 14.78,-26.51 20.73,-27.23l0 0zm-598.39 478.7c-0.47,8.36 0.03,16.84 -2.88,24.82 -2.93,8.05 -8.87,14.55 -12.29,22.37 -6.94,15.85 -6.88,35.02 -6.61,52 0.65,39.51 10,77.88 14.95,116.92 -16.47,-0.04 -33.5,0.15 -49.46,-4.56 -14.26,-4.21 -16.53,-14.63 -20.57,-27.76 -11.32,-36.88 -23.55,-73.61 -27.21,-112.23 -1.74,-18.41 -2.47,-36.96 -3.3,-55.43 -0.73,-16.2 2.91,-23.27 17.53,-31.29 31.78,-17.44 64.73,-31.95 96.19,-50.22 -3.22,21.67 -5.14,43.51 -6.36,65.37l0 0zm1356.91 -1294.48c-7.74,-1.42 -15.55,-2.31 -23.36,-3.24 -4.07,-0.49 -16.77,0.19 -19.82,-2.47 -3.63,-3.16 2.65,-27.06 2.98,-32.19 1.97,-30.84 -0.32,-62.64 -3.15,-93.36 -5.12,-55.62 -22.61,-107.15 -62.97,-147.2 -20.09,-19.94 -42.67,-35.75 -70.11,-43.39 -15.98,-4.45 -32.45,-6.82 -48.47,-11.13 -12.92,-3.48 -24.98,-7.47 -38.4,-8.85 -26.77,-2.75 -51.25,-12.87 -77.38,-18.72 -19.22,-4.31 -50.14,-14.52 -62.6,7.19 -9.81,-11.51 -19.68,-20.14 -32.05,-28.73 -11.85,-8.22 -13.79,-16.43 -28.3,-6.94 -28.19,18.45 -54.6,40.95 -80.94,61.93 -24.6,19.6 -48.39,40.12 -74.17,58.15 -26.29,18.39 -21.31,49.58 -8.94,75.45 23.26,48.68 59.14,90.3 90.54,132.03 19.67,26.14 39.41,52.32 59,78.51 18.73,25.04 34.93,54.01 56.82,76.5 13.8,14.18 30.27,-4.36 42.72,-12.93 15.46,-10.64 30.65,-21.68 46.12,-32.29 32.23,-22.1 66.71,-42.8 100.74,-62.04 2.47,7.02 4.95,14.03 7.42,21.05 -7.47,0.56 -17.57,-1.11 -21.37,6.93 -5.43,11.47 7.9,12.98 10.23,19.56 2.09,5.88 -6.47,21.4 -9,26.69 -5.69,11.93 -13.64,22.22 -22.4,32.04 -34.65,38.86 -78.5,66.66 -122.99,93.16 -47.61,28.35 -98.63,45.66 -150.75,63.93 -26.5,9.29 -54.01,13.6 -81.36,19.55 -26.35,5.73 -52.68,13.26 -79.61,15.42 -55.09,4.42 -113.56,7.74 -167.99,-4.15 -5.96,-1.3 -12.26,-4.12 -18.32,-4.65 -4.86,-0.43 -8.46,1.61 -13.05,1.87 -9.85,0.56 -15.49,-8.24 -23.32,-0.06 -3.91,4.09 -3.98,10.97 -9.44,3.33 -6.94,-9.72 10.8,-11.6 17.37,-14.37 22.13,-9.32 39.93,-28.09 53.99,-47.06 14.05,-18.96 16.07,-39.2 7.52,-61.4 -8.55,-22.19 -28.01,-37.23 -42.61,-55.24 -7.06,-8.72 -13.57,-17.95 -21.32,-26.1 -4.14,-4.35 -10.81,-8.52 -11.07,-12.9 -0.3,-5.1 2.75,-7.63 0.93,-13.83 -0.47,-1.61 -2.5,-2.53 -2.93,-4.3 -0.68,-2.82 0.37,-5.25 0.02,-8 -0.82,-6.31 -3.29,-10.27 -6.8,-15.44 -2.18,-3.23 -5.37,-9.7 -8.38,-12.12 -5.26,-4.24 -12.44,-2.51 -17.79,-6.81 -8.47,-6.8 -11.44,-21.13 -18.93,-29.39 -10.54,-11.62 -12.79,0.12 -23.96,-3.58 -9.55,-3.17 -9.44,-17.54 -17.16,-22.4 -10.87,-6.85 -20.03,5.75 -29.68,8.56 -12.7,3.69 -7.82,-10.64 -19.14,-11.94 -10.22,-1.18 -24.38,19.56 -29.48,26.92 -5.19,-6.05 -10.87,-16.37 -20.22,-12.67 -9.81,3.88 -11.56,21.94 -18.73,28.38 -2.5,2.24 -1.97,3.89 -5.05,4.92 -3.97,1.33 -9.26,-4.43 -14.39,-2.68 -10.35,3.54 -9.09,17.36 -9.11,26.31 -12.22,-1.78 -20.74,-2.69 -24.83,10.47 -4,12.88 -5.52,7.2 -18.4,11.38 -11.1,3.61 -12.66,14.15 -14.49,24.46 -1.13,6.41 -0.08,9.03 1.64,14.88 2.18,7.36 2.18,7.27 -1.37,14.3 -6.18,12.27 -6.55,25.78 -7.54,39.27 -1.05,14.4 -3.57,27.52 0.53,41.58 2.53,8.71 2.72,20.55 11.25,25.43 3.38,1.93 9.13,0.87 12,2.79 5.49,3.66 3.82,9.23 7.48,14.57 2.74,4 7.16,4.38 10.24,7.63 3.34,3.53 3.54,7.83 5.44,12.13 5.63,12.75 10.93,18.92 -7.43,19.65 -11.32,0.45 -23.4,3.84 -34.67,2.8 -13.31,-1.23 -16.62,-8.66 -20.85,-19.99 -21.35,-57.07 -32.82,-118.92 -60.93,-173.19 -6.17,-11.92 -31.51,-60.59 -42.22,-25.13 -9.03,29.91 2.82,66.42 7.36,96.2 -14.25,-12.85 -19.52,-35.98 -30.35,-51.67 -7.99,-11.59 -33.02,-40.04 -47.7,-23.74 -11.56,12.85 -8.67,40.1 -6.54,55.47 3.37,24.31 11.14,47.73 16.69,71.57 -6.99,-9.14 -10.43,-20.3 -15.28,-30.58 -6.08,-12.9 -13.66,-25.14 -22.31,-36.48 -7.55,-9.91 -16,-19.12 -25.15,-27.56 -7,-6.46 -19.53,-20.6 -29.47,-21.36 -25.58,-1.96 -17.53,44.96 -13.64,58.38 8.07,27.81 16.83,54.84 23.1,83.21 12.25,55.42 27.1,109.55 36.12,165.67 2,12.45 4.41,22.38 -0.52,34.34 -4.34,10.54 -8.84,23.14 -16.84,31.24 -18.11,18.35 -33.15,37.94 -46.69,60.05 -14.5,23.68 -29.43,47.63 -41.27,72.77 -5.44,11.57 -9.89,24.07 -16.15,35.2 -5.65,10.04 -12.44,17.98 -16.45,29.09 -19.18,53.12 -33.39,105.31 -39.89,161.55 -5.34,46.18 -0.36,107.6 55.39,118.41 25.61,4.96 48.61,-6.39 71.7,-15.77 23.89,-9.69 41.16,-25.45 60.65,-42.2 24.21,-20.81 49.35,-40.34 73.81,-60.8 24.48,-20.48 47.09,-43.18 71.44,-63.88 24.05,-20.44 45.8,-42.16 66.6,-65.9 20.63,-23.55 37.39,-49.65 57.36,-73.53 -0.07,30.92 -4.67,61.56 -5.95,92.44 -1.18,28.31 -1.21,56.59 -0.06,84.89 1.14,28.28 -6.33,55.2 -6.39,83.42 -0.06,27.53 -1.15,54.9 -1.76,82.39 -0.27,12.34 -2.69,26.17 1.92,38.07 3.44,8.89 14.26,11.66 23.49,14.06 14.26,3.7 57.17,-3.43 63.54,11.81 3.48,8.31 -0.02,23.45 0.25,32.64 0.45,15.14 1.01,30.28 1.53,45.41 0.54,15.63 1.06,31.27 1.63,46.9 0.51,13.77 3.19,29.12 1.53,42.75 -1.42,11.69 -8.23,10.16 -19.03,10.76 -16.3,0.9 -32.6,1.62 -48.91,2.34 -23.92,1.05 -48.89,0.57 -71.82,3.39 -9.63,1.18 -20.16,0.68 -30.32,2.61 -12.74,2.42 -24.51,3.04 -37.44,3.68 -10.42,0.52 -23.81,-0.24 -32,7.46 -2.84,2.67 -3.47,5.86 -5.49,8.83 -3.77,5.57 -1.67,4.11 -7.86,5.36 -24.17,4.89 -47.12,10.42 -70.75,18.65 -11.83,4.12 -22.81,9.66 -34.69,13.54 -10.42,3.4 -18.05,7.59 -23.2,17.81 -9.2,18.26 -6.87,44.68 -6.2,64.36 1.05,30.7 7.87,59.93 15.23,89.63 7.65,30.89 13.65,62.61 28.54,90.99 4.89,9.33 10.17,21.22 20.16,26.08 12.9,6.27 32.74,2.47 46.82,2.49 9.45,0.01 34.76,3.26 41.82,-4.66 6.84,-7.67 -0.04,-29.31 -1.01,-38.83 -3.39,-33.36 -9.48,-67.04 -9.39,-100.63 7.71,11.39 21.07,31.04 34.44,13.6 3.29,-4.29 2.01,-6.29 7.85,-8.78 3.23,-1.38 10.05,-2.22 13.57,-1.98 4.79,0.32 6.56,2.25 10.96,1.3 3.89,-0.83 8.27,-4.32 12.74,-5.38 55.36,-13.16 110.39,-27.34 165.99,-39.06 14.7,-3.1 12.61,8.18 13.58,20.89 1.07,14.05 -0.97,28.25 0.98,42.15 1.7,12.09 3.02,23.88 0.63,36.04 -2.82,14.35 -1,26.32 1.8,40.53 10.81,54.79 8.88,114.22 11.32,169.91 1.27,29 -1.46,58.62 1.27,87.46 1.03,10.9 7.11,16.92 9.58,26.83 2.83,11.38 -4.89,25.87 -7.24,36.9 -4.72,22.13 -13.01,53.81 2.15,73.06 8.19,10.4 18.92,11.91 31.04,15.43 14.5,4.21 28.8,9.12 43.37,13.1 53.24,14.57 110.77,17.42 165.34,25.46 13.36,1.96 25.75,1.78 39.2,0.85 8.29,-0.58 28.7,2.15 35.6,-2.81 3.69,-2.65 1.82,-5.98 3.7,-9.22 2.66,-4.61 5.89,-6.48 10.43,-9.35 7.52,-4.75 16.21,-7.52 17.48,-17.33 3.1,-24.02 -26.91,-36.75 -42.96,-47.13 -20.51,-13.28 -45.28,-18.4 -67.05,-29.24 -12.01,-5.98 -23.6,-12.75 -35.17,-19.54 -5.02,-2.94 -15.19,-6.27 -18.69,-10.9 -3.57,-4.72 -0.07,-11.47 1.4,-18.22 6.1,-27.9 4.04,-56.43 7.19,-84.63 3.16,-28.24 2.3,-56.66 3.34,-85.04 1.07,-29.23 3.49,-58.39 5.34,-87.59 1.71,-26.96 3.43,-54.36 3.71,-81.34 0.27,-25.03 3.68,-49.58 4.49,-74.77 0.27,-8.55 -1.26,-24.06 4.42,-31.3 4.98,-6.35 21.46,-5.55 29.15,-6.67 20.72,-3.01 40.45,-5.64 60.94,-7.46 48.75,-4.32 103.01,-7.49 149.11,-24.48 19.01,-7.01 44.31,-16.58 50.62,-38.41 7.25,-25.1 -2.21,-55.94 -2.53,-81.6 -0.33,-27.4 -8.28,-54.12 -14.23,-80.67 -6.41,-28.58 -10.45,-57.64 -17.38,-86.11 -6.36,-26.12 -16.67,-49.26 -26.42,-74.06 -3.96,-10.06 -26.49,-44.72 -19.5,-53.27 3.77,-4.6 17.32,-5.77 22.83,-7.88 11.86,-4.53 23.73,-9.69 34.67,-16.15 14.6,-8.63 46.56,-22.9 48.03,-42.07 1.4,-18.32 -16.6,-36.84 -25.75,-51.22 -14.74,-23.18 -33.34,-43.45 -47.38,-67.09 -28.38,-47.78 -50.95,-100.12 -71.64,-151.61 -10.82,-26.94 -14.36,-52.31 -16.14,-81.06 31.43,0.08 63.42,3.94 94.65,-0.45 33.99,-4.79 68.02,-12.84 101.71,-19.48 61.35,-12.09 120.26,-25.75 177.09,-52.98 53.22,-25.5 107.23,-53.4 151.29,-93.88 22.79,-20.93 46.03,-42.26 65.7,-66.19 20.21,-24.58 35.42,-52.52 51.01,-80.12 17.21,-30.46 30.91,-62.48 41.75,-95.8 2.18,-6.7 2.19,-15.23 4.98,-21.56 3.15,-7.14 8.87,-7.33 14.85,-11.09 8.41,-5.29 14,-23.01 -0.59,-25.69z"/>
     </g>
     <path id="ink-shape_0" class="fil0" d="M909.66 67.23c7.18,6.17 38.15,27.91 48.15,22.63 12.34,-6.53 -7.2,-26.18 -12.46,-31.03 -6.7,-6.17 -30.62,-24.82 -39.77,-23.09 -18.31,3.46 -2.39,25.94 4.08,31.49z"/>
     <path id="ink-shape_1" class="fil0" d="M924.95 290.37c4.06,-7.99 14.86,-10.93 19.85,-18.66 6.01,-9.29 8.77,-17.43 6.55,-28.83 -15.37,5.18 -32.87,20.84 -43.15,33.09 -8.6,10.24 -20.81,31.63 1.63,31.68 -0.19,-3.05 -0.39,-6.09 -0.59,-9.14 6.73,0.98 12.66,-2.13 15.71,-8.15z"/>
     <path id="ink-shape_2" class="fil0" d="M851.71 157.45c9.91,2.85 18.09,2.45 28.22,2.67 7.35,0.16 17.39,4.2 23.35,-0.35 -5.29,-3.06 1.39,-3.23 0.09,-6.21 -1.1,-2.49 -3.19,-1.67 -4.88,-3.69 -6.05,-7.18 -11.31,-7.09 -20.9,-8.58 -7.43,-1.16 -18.36,-3.84 -25.51,-0.15 -7.52,3.89 -10.42,13.41 -0.36,16.31z"/>
     <path id="ink-shape_3" class="fil0" d="M992.8 377.54c6.41,-5.38 13.4,-20.94 14.69,-28.97 0.51,-3.15 -1.76,-5.56 -1.49,-7.87 0.52,-4.41 9.59,-12.94 0.09,-16.57 -8.31,-3.17 -16.12,21.46 -18.23,26.83 -2.17,5.5 -8.07,16.2 -6.26,21.52 1.5,4.41 6.87,8.69 11.2,5.06z"/>
     <path id="ink-shape_4" class="fil0" d="M1069.48 44.25c5.8,-5.38 9.47,-11.49 8.87,-18.89 -0.48,-5.83 -4.84,-25.93 -9.76,-25.34 -16.32,1.97 -8.98,53.4 0.89,44.23z"/>
     <path id="ink-shape_5" class="fil0" d="M724.98 943.04c-1.34,-4.92 -6.22,-34.97 -14.66,-32.92 -6.41,1.56 0.25,28 0.55,31.48 0.63,7.28 -13.37,7.04 -19.87,6.06 -10.31,-1.56 -9.49,-7.6 -11.03,-16.98 -0.58,-3.54 -2.81,-19.56 -10.2,-13.69 -4.99,3.96 -1.42,23.71 -1.01,28.22 1.44,15.6 3.13,42.25 12.41,56.42 3.7,5.65 7.03,8.44 10.91,1.19 3.93,-7.33 -4.97,-29.69 -6.53,-37.19 7.34,0.72 28.48,-1.66 32.9,5.96 4.04,6.96 -2.42,26.85 10.53,28.46 7.69,0.96 6.29,-7.95 5.56,-14.79 -1.55,-14.36 -5.77,-28.34 -9.56,-42.22z"/>
     <path id="ink-shape_6" class="fil0" d="M744.67 936.08c-8.51,3.84 2.18,59.89 14.63,58.09 14.53,-2.11 -6.52,-61.75 -14.63,-58.09z"/>
     <path id="ink-shape_7" class="fil0" d="M735.18 917.52c-1.05,12.62 15.35,17.33 16.13,3.61 0.6,-10.58 -15.02,-16.88 -16.13,-3.61z"/>
     <path id="ink-shape_8" class="fil0" d="M645.16 582.91c7.49,27.9 75.64,39.77 66.46,2.14 -4.6,-18.84 -23.8,-2.1 -37.21,-4.29 -8.68,-1.42 -34.52,-17.52 -29.25,2.15z"/>
     <path id="ink-shape_9" class="fil0" d="M628.04 533.14c3.2,-14.93 -29.46,-31.41 -41.31,-27.3 -17.34,6.01 -17.26,44.47 -4.04,54.7 1.74,1.35 7.07,4.55 9.69,2 4.12,-4.05 -0.38,-2.94 -1.34,-6.98 -1.53,-6.42 -6.52,-14.67 -1.55,-21.97 9.4,-13.8 33.96,20.95 38.55,-0.44z"/>
     <path id="ink-shape_10" class="fil0" d="M528.46 605.61c-11.78,-0.66 -21.43,17.61 -4.11,16.08 3.32,-0.29 10.45,-1.13 12.37,-4.61 3.19,-5.78 -3.09,-11.18 -8.27,-11.47z"/>
     <path id="ink-shape_11" class="fil0" d="M1099.72 169.9c-4.03,-5.83 -12.48,-15.21 -19.75,-9.36 -6.45,5.18 -5.32,17.98 -2.85,24.34 6.65,17.12 22.36,32.38 40.15,22.51 -6.18,-12.38 -9.66,-26.08 -17.55,-37.49z"/>
    </g>
   </g>
  </g>
 </g>
</svg>
